<svg width="67" height="62" viewBox="0 0 67 62" fill="none" xmlns="http://www.w3.org/2000/svg"><path d="M22.332 39.455c0-12.45 10-22.545 22.334-22.545C57.002 16.91 67 27.004 67 39.455 67 51.906 57.002 62 44.666 62c-12.334 0-22.334-10.094-22.334-22.545z" fill="#4FC2E9"/><path d="M0 39.455C0 27.005 9.998 16.91 22.332 16.91c12.335 0 22.334 10.094 22.334 22.545C44.666 51.906 34.668 62 22.332 62 9.998 62 0 51.906 0 39.455z" fill="#EC87C0"/><path d="M33.5 19.926a22.577 22.577 0 00-11.168 19.53A22.572 22.572 0 0033.5 58.982a22.575 22.575 0 0011.166-19.527A22.58 22.58 0 0033.5 19.926z" fill="#5D9CEC"/><path d="M33.5 45.09c-12.336 0-22.334-10.093-22.334-22.543C11.166 10.095 21.164 0 33.5 0c12.334 0 22.332 10.095 22.332 22.547 0 12.45-9.998 22.543-22.332 22.543z" fill="#FFCE54"/><path d="M22.332 39.455c0 .917.057 1.82.162 2.713A22.061 22.061 0 0033.5 45.09c12.334 0 22.332-10.093 22.332-22.543 0-.919-.055-1.824-.16-2.712a22.074 22.074 0 00-11.006-2.925c-12.334 0-22.334 10.094-22.334 22.545z" fill="#A0D468"/><path d="M22.332 16.91a22.068 22.068 0 00-11.005 2.924 22.83 22.83 0 00-.161 2.713c0 12.45 9.998 22.543 22.334 22.543 4.001 0 7.757-1.06 11.004-2.923a22.89 22.89 0 00.162-2.712c0-12.45-9.998-22.545-22.334-22.545z" fill="#ED5564"/><path d="M34.134 45.082c.167-.004.335-.012.503-.02.018 0 .037 0 .057-.005a16.27 16.27 0 00.577-.037c.161-.012.323-.025.484-.041l.1-.012c.138-.017.272-.03.407-.046.043-.008.086-.012.129-.016.156-.021.31-.046.464-.066.045-.009.092-.017.137-.021l.364-.062.141-.025.44-.086c.055-.009.11-.021.166-.034l.327-.074a13.326 13.326 0 00.566-.136l.194-.05c.096-.024.192-.053.288-.078.088-.025.178-.05.266-.078.098-.025.194-.054.29-.087.072-.02.146-.045.217-.066.082-.029.166-.054.248-.083.112-.037.225-.074.337-.115l.213-.075.237-.086a3.4 3.4 0 00.198-.079c.131-.05.262-.099.393-.152.053-.025.108-.046.161-.07.086-.034.172-.07.256-.108.035-.016.07-.029.104-.045.16-.07.32-.14.477-.215l.133-.062a28.54 28.54 0 001.49-.78c.002-.004.004-.004.006-.004.107-.892.162-1.796.162-2.713A22.58 22.58 0 0033.5 19.927a22.577 22.577 0 00-11.168 19.528c0 .917.057 1.821.161 2.713l.027.012c.174.1.35.198.527.293l.113.062c.274.145.55.28.83.413.045.025.09.045.135.066l.464.21.117.05c.084.037.167.074.253.108.055.024.11.045.166.07.127.053.257.103.386.152.068.025.133.054.2.079a114.745 114.745 0 00.453.16c.11.042.223.08.335.116.082.03.166.054.25.083.07.025.143.045.216.066.096.033.192.062.29.09l.264.075c.096.025.192.054.29.079l.195.05a14.432 14.432 0 00.564.135l.327.075c.056.012.113.024.168.033l.438.086.14.025.367.062c.045.004.09.013.134.02.156.021.31.046.465.067.043.004.088.008.13.016.136.017.27.03.405.046l.103.012a18.064 18.064 0 00.607.05c.151.012.302.02.454.028a.27.27 0 00.057.005c.168.008.335.016.503.02.04 0 .08 0 .12.004.17.004.342.004.514.004s.341 0 .51-.004c.042-.004.083-.004.124-.004z" fill="#434A54"/></svg>