<svg aria-hidden="true" style="position: absolute; width: 0; height: 0; overflow: hidden;" version="1.1" xmlns="http://www.w3.org/2000/svg" xmlns:xlink="http://www.w3.org/1999/xlink">
<defs>
<symbol id="phone" viewBox="0 0 32 32">
<title>phone</title>
<path stroke-linejoin="round" stroke-linecap="round" stroke-miterlimit="4" stroke-width="2.9091" d="M30.383 23.157v4.364c0.003 0.819-0.339 1.602-0.942 2.155s-1.413 0.827-2.229 0.754c-4.476-0.486-8.775-2.016-12.553-4.465-3.514-2.233-6.494-5.213-8.727-8.727-2.458-3.795-3.988-8.115-4.465-12.611-0.073-0.813 0.198-1.62 0.749-2.223s1.329-0.947 2.146-0.948h4.364c1.46-0.014 2.705 1.056 2.909 2.502 0.184 1.396 0.526 2.768 1.018 4.087 0.4 1.063 0.144 2.262-0.655 3.069l-1.847 1.847c2.071 3.641 5.086 6.657 8.727 8.727l1.847-1.847c0.808-0.799 2.006-1.054 3.069-0.655 1.32 0.492 2.691 0.834 4.087 1.018 1.463 0.206 2.538 1.476 2.502 2.953z"></path>
</symbol>
<symbol id="facebook" viewBox="0 0 19 32">
<title>facebook</title>
<path fill="none" stroke="#3d76b9" style="stroke: var(--color1, #3d76b9)" stroke-linejoin="round" stroke-linecap="round" stroke-miterlimit="4" stroke-width="2.9091" d="M17.455 1.455h-4.364c-4.017 0-7.273 3.256-7.273 7.273v4.364h-4.364v5.818h4.364v11.636h5.818v-11.636h4.364l1.455-5.818h-5.818v-4.364c0-0.803 0.651-1.455 1.455-1.455h4.364v-5.818z"></path>
</symbol>
<symbol id="human" viewBox="0 0 30 32">
<title>human</title>
<path fill="none" stroke="#1ab0ce" style="stroke: var(--color2, #1ab0ce)" stroke-linejoin="round" stroke-linecap="round" stroke-miterlimit="4" stroke-width="2.1333" d="M26.785 29.867v-3.082c0-3.404-2.759-6.163-6.163-6.163h-12.326c-3.404 0-6.163 2.759-6.163 6.163v3.082"></path>
<path fill="none" stroke="#1ab0ce" style="stroke: var(--color2, #1ab0ce)" stroke-linejoin="round" stroke-linecap="round" stroke-miterlimit="4" stroke-width="2.1333" d="M14.459 14.459c3.404 0 6.163-2.759 6.163-6.163s-2.759-6.163-6.163-6.163c-3.404 0-6.163 2.759-6.163 6.163s2.759 6.163 6.163 6.163z"></path>
</symbol>
<symbol id="logo" viewBox="0 0 35 32">
<title>logo</title>
<path fill="#4fc2e9" style="fill: var(--color3, #4fc2e9)" d="M11.526 20.364c0-6.426 5.162-11.636 11.527-11.636s11.527 5.21 11.527 11.636c0 6.426-5.161 11.636-11.527 11.636s-11.527-5.21-11.527-11.636z"></path>
<path fill="#ec87c0" style="fill: var(--color4, #ec87c0)" d="M0 20.364c0-6.426 5.161-11.636 11.526-11.636 6.367 0 11.527 5.21 11.527 11.636s-5.161 11.636-11.527 11.636c-6.366-0-11.526-5.21-11.526-11.636z"></path>
<path fill="#5d9cec" style="fill: var(--color5, #5d9cec)" d="M17.29 10.285c-3.446 2.012-5.764 5.773-5.764 10.079s2.319 8.067 5.764 10.078c3.445-2.011 5.763-5.772 5.763-10.078s-2.319-8.067-5.763-10.079z"></path>
<path fill="#ffce54" style="fill: var(--color6, #ffce54)" d="M17.29 23.272c-6.367 0-11.527-5.21-11.527-11.635-0-6.427 5.16-11.637 11.527-11.637 6.366 0 11.526 5.21 11.526 11.637-0 6.426-5.161 11.635-11.526 11.635z"></path>
<path fill="#a0d468" style="fill: var(--color7, #a0d468)" d="M11.526 20.364c0 0.473 0.030 0.94 0.083 1.4 1.677 0.961 3.615 1.509 5.681 1.509 6.366 0 11.526-5.21 11.526-11.635 0-0.474-0.029-0.941-0.082-1.4-1.677-0.96-3.616-1.51-5.681-1.51-6.366-0-11.527 5.21-11.527 11.636z"></path>
<path fill="#ed5564" style="fill: var(--color8, #ed5564)" d="M11.526 8.727c-2.065 0-4.003 0.549-5.68 1.51-0.055 0.459-0.083 0.926-0.083 1.4 0 6.426 5.161 11.635 11.527 11.635 2.065 0 4.004-0.548 5.68-1.509 0.055-0.46 0.083-0.927 0.083-1.4 0-6.426-5.16-11.636-11.527-11.636z"></path>
<path fill="#434a54" style="fill: var(--color9, #434a54)" d="M17.617 23.268c0.087-0.002 0.173-0.006 0.26-0.011 0.010 0 0.019 0 0.030-0.002 0.078-0.004 0.155-0.009 0.233-0.015 0.021 0 0.043-0.002 0.064-0.004 0.083-0.006 0.167-0.013 0.25-0.021 0.017-0.002 0.035-0.004 0.052-0.006 0.071-0.009 0.14-0.015 0.21-0.023 0.022-0.004 0.044-0.006 0.066-0.009 0.080-0.011 0.16-0.023 0.24-0.034 0.023-0.004 0.047-0.009 0.071-0.011 0.063-0.011 0.126-0.021 0.188-0.032 0.024-0.004 0.049-0.009 0.073-0.013 0.076-0.015 0.151-0.030 0.227-0.045 0.029-0.004 0.057-0.011 0.086-0.017 0.057-0.013 0.113-0.026 0.169-0.038 0.026-0.004 0.053-0.011 0.079-0.017 0.072-0.017 0.142-0.034 0.213-0.053 0.034-0.009 0.066-0.017 0.1-0.026 0.050-0.013 0.099-0.028 0.149-0.041 0.045-0.013 0.092-0.026 0.137-0.040 0.051-0.013 0.1-0.028 0.15-0.045 0.037-0.011 0.075-0.023 0.112-0.034 0.042-0.015 0.086-0.028 0.128-0.043 0.058-0.019 0.116-0.038 0.174-0.060 0.037-0.013 0.073-0.026 0.11-0.038 0.041-0.015 0.082-0.030 0.122-0.045 0.035-0.013 0.069-0.026 0.102-0.041 0.067-0.026 0.135-0.051 0.203-0.079 0.027-0.013 0.056-0.023 0.083-0.036 0.044-0.017 0.089-0.036 0.132-0.055 0.018-0.009 0.036-0.015 0.054-0.023 0.082-0.036 0.165-0.072 0.246-0.111 0.023-0.011 0.045-0.021 0.069-0.032 0.145-0.070 0.288-0.143 0.43-0.217 0.019-0.009 0.038-0.019 0.057-0.030 0.095-0.051 0.189-0.102 0.283-0.156 0.001-0.002 0.002-0.002 0.003-0.002 0.055-0.46 0.083-0.927 0.083-1.4 0-4.307-2.319-8.067-5.763-10.079-3.446 2.013-5.764 5.773-5.764 10.079 0 0.473 0.030 0.94 0.083 1.4 0.004 0.002 0.010 0.004 0.014 0.006 0.090 0.051 0.18 0.102 0.272 0.151 0.019 0.011 0.039 0.021 0.058 0.032 0.141 0.075 0.284 0.145 0.428 0.213 0.023 0.013 0.046 0.023 0.070 0.034 0.079 0.036 0.159 0.072 0.24 0.109 0.020 0.009 0.040 0.017 0.060 0.026 0.043 0.019 0.087 0.038 0.131 0.055 0.029 0.013 0.057 0.023 0.085 0.036 0.065 0.028 0.133 0.053 0.199 0.079 0.035 0.013 0.069 0.028 0.103 0.041 0.041 0.015 0.082 0.030 0.123 0.045 0.036 0.013 0.073 0.026 0.11 0.038 0.057 0.021 0.115 0.041 0.173 0.060 0.042 0.015 0.085 0.028 0.129 0.043 0.037 0.013 0.074 0.023 0.112 0.034 0.050 0.017 0.099 0.032 0.15 0.047 0.045 0.013 0.091 0.026 0.136 0.038 0.050 0.013 0.099 0.028 0.15 0.041 0.033 0.009 0.066 0.017 0.1 0.026 0.070 0.019 0.141 0.036 0.212 0.053 0.026 0.006 0.053 0.013 0.079 0.017 0.057 0.013 0.113 0.026 0.169 0.038 0.029 0.006 0.058 0.013 0.087 0.017 0.075 0.015 0.151 0.030 0.226 0.045 0.024 0.004 0.049 0.009 0.073 0.013 0.062 0.011 0.126 0.021 0.189 0.032 0.023 0.002 0.046 0.006 0.070 0.011 0.080 0.011 0.159 0.023 0.24 0.034 0.022 0.002 0.045 0.004 0.068 0.009 0.070 0.009 0.139 0.015 0.209 0.023 0.018 0.002 0.035 0.004 0.053 0.006 0.083 0.009 0.166 0.015 0.25 0.021 0.021 0.002 0.042 0.004 0.063 0.004 0.078 0.006 0.156 0.011 0.234 0.015 0.010 0.002 0.020 0.002 0.030 0.002 0.087 0.004 0.173 0.009 0.26 0.011 0.021 0 0.041 0 0.062 0.002 0.088 0.002 0.176 0.002 0.265 0.002s0.176 0 0.264-0.002c0.021-0.002 0.042-0.002 0.063-0.002z"></path>
</symbol>
<symbol id="search" viewBox="0 0 32 32">
<title>search</title>
<path stroke-linejoin="round" stroke-linecap="round" stroke-miterlimit="4" stroke-width="3.2" d="M13.6 25.6c6.627 0 12-5.373 12-12s-5.373-12-12-12c-6.627 0-12 5.373-12 12s5.373 12 12 12z"></path>
<path stroke-linejoin="round" stroke-linecap="round" stroke-miterlimit="4" stroke-width="3.2" d="M30.4 30.4l-8.32-8.32"></path>
</symbol>
<symbol id="shape" viewBox="0 0 32 32">
<title>shape</title>
<path fill="none" stroke="#1ab0ce" style="stroke: var(--color2, #1ab0ce)" stroke-linejoin="round" stroke-linecap="round" stroke-miterlimit="4" stroke-width="2.6667" d="M10.667 30.667c1.473 0 2.667-1.194 2.667-2.667s-1.194-2.667-2.667-2.667c-1.473 0-2.667 1.194-2.667 2.667s1.194 2.667 2.667 2.667z"></path>
<path fill="none" stroke="#1ab0ce" style="stroke: var(--color2, #1ab0ce)" stroke-linejoin="round" stroke-linecap="round" stroke-miterlimit="4" stroke-width="2.6667" d="M26.667 30.667c1.473 0 2.667-1.194 2.667-2.667s-1.194-2.667-2.667-2.667c-1.473 0-2.667 1.194-2.667 2.667s1.194 2.667 2.667 2.667z"></path>
<path fill="none" stroke="#1ab0ce" style="stroke: var(--color2, #1ab0ce)" stroke-linejoin="round" stroke-linecap="round" stroke-miterlimit="4" stroke-width="2.6667" d="M7.56 8h23.107l-2.24 11.187c-0.252 1.267-1.375 2.171-2.667 2.147h-14.093c-1.347 0.011-2.492-0.984-2.667-2.32l-2.027-15.36c-0.174-1.326-1.303-2.318-2.64-2.32h-3"></path>
</symbol>
</defs>
</svg>
