<svg aria-hidden="true" style="position:absolute;width:0;height:0" xmlns="http://www.w3.org/2000/svg" overflow="hidden"><defs><symbol id="code" viewBox="0 0 42 32"><path d="M13.279 26.179c.3-.302.3-.765 0-1.066L4.203 16l9.076-9.114c.3-.302.3-.765 0-1.066l-1.155-1.159a.736.736 0 00-1.062 0L.3 15.467c-.3.302-.3.765 0 1.066l10.762 10.806a.737.737 0 001.062 0l1.155-1.16zM26.927 1.438a.751.751 0 00-.508-.927L24.987.116c-.37-.116-.785.116-.901.51l-8.614 29.937a.752.752 0 00.508.927l1.432.394c.37.117.785-.115.901-.51l8.614-29.936zM42.1 16.533c.3-.302.3-.765 0-1.066L31.338 4.661a.736.736 0 00-1.062 0L29.121 5.82c-.3.302-.3.765 0 1.066L38.197 16l-9.076 9.113c-.3.302-.3.765 0 1.066l1.155 1.16c.3.301.762.301 1.062 0L42.1 16.533z"/></symbol><symbol id="e-mail" viewBox="0 0 44 32"><path fill="#555" d="M40.521 28.364c0 .387-.367.727-.78.727H3.895c-.413 0-.78-.34-.78-.727V10.909a12.919 12.919 0 001.681 1.498c3.482 2.502 6.988 5.044 10.374 7.683 1.827 1.431 4.09 3.18 6.624 3.18h.047c2.534 0 4.797-1.748 6.624-3.18 3.386-2.639 6.892-5.181 10.374-7.683a12.919 12.919 0 001.681-1.498v17.455zm0-23.89c0 1.935-1.999 4.457-3.581 5.615a1607.022 1607.022 0 00-9.766 7.206c-1.289.977-3.628 3.069-5.332 3.069h-.047c-1.705 0-4.044-2.092-5.335-3.069a1649.778 1649.778 0 00-9.763-7.206C4.504 8.477 3.116 6.226 3.116 3.637c0-.387.367-.727.78-.727h35.846c.925 0 .78.998.78 1.565zm3.115-.838c0-2.001-1.754-3.639-3.895-3.639H3.895C1.754-.003 0 1.635 0 3.636v24.727c0 1.999 1.754 3.636 3.895 3.636h35.846c2.141 0 3.895-1.638 3.895-3.636V3.636z"/></symbol><symbol id="facebook" viewBox="0 0 18 32"><path d="M16.194.006l-4.036-.008c-4.534 0-7.464 3.092-7.464 7.876v3.63H.634a.645.645 0 00-.634.654v5.26c0 .362.284.652.634.652h4.06v13.276c0 .362.282.654.634.654h5.294a.645.645 0 00.636-.654V18.07h4.744a.64.64 0 00.634-.652l.002-5.26a.657.657 0 00-.186-.462.625.625 0 00-.448-.192h-4.746V8.426c0-1.478.342-2.23 2.216-2.23h2.72c.35 0 .634-.292.634-.652V.658a.643.643 0 00-.634-.652z"/></symbol><symbol id="google" viewBox="0 0 34 32"><path d="M3.17 7.558c0 2.574.89 4.43 2.644 5.52 1.436.896 3.106 1.028 3.972 1.028.21 0 .378-.006.496-.014 0 0-.274 1.728 1.052 3.438h-.06c-2.3 0-9.8.464-9.8 6.418 0 6.056 6.89 6.364 8.272 6.364h.17c.016 0 .114.004.282.004.888 0 3.18-.108 5.31-1.108 2.762-1.294 4.162-3.546 4.162-6.692 0-3.04-2.134-4.848-3.692-6.172-.952-.806-1.774-1.502-1.774-2.178 0-.69.6-1.208 1.36-1.864 1.23-1.062 2.388-2.572 2.388-5.428 0-2.51-.338-4.194-2.414-5.264.216-.106.982-.186 1.36-.236 1.126-.148 2.772-.316 2.772-1.204v-.172h-8.204C11.384 0 3.17.294 3.17 7.558zm13.244 15.524c.156 2.424-1.99 4.212-5.212 4.438-3.274.23-5.968-1.192-6.126-3.612-.076-1.162.454-2.304 1.49-3.21 1.052-.918 2.496-1.486 4.066-1.598.186-.01.368-.018.552-.018 3.03 0 5.08 1.718 5.23 4zM14.272 5.9c.804 2.734-.412 5.592-2.348 6.118-.222.06-.454.092-.686.092-1.774 0-3.532-1.734-4.184-4.12-.364-1.342-.334-2.514.084-3.64.41-1.11 1.146-1.86 2.074-2.112.222-.06.454-.09.686-.09 2.142 0 3.52.856 4.374 3.752zm13.822 5.954V6.686h-3.39v5.168h-5.352v3.272h5.352v5.168h3.39v-5.168h5.354v-3.272h-5.354z"/></symbol><symbol id="letter" viewBox="0 0 34 32"><path d="M14.988 8.978c1.468 3.021 2.729 6.25 3.804 9.417-.393.021-.786.042-1.178.042-2.047 0-4.094-.062-6.14-.083l3.514-9.375zM0 32c1.302 0 2.584-.063 3.886-.292.29-.042.703-.166.992-.166 2.398 0 4.818.416 7.215.416.021-.187.042-.374.042-.562 0-.416 0-.812-.021-1.208-1.178-.166-4.218-.23-4.218-1.834 0-.792 2.088-6.25 2.626-7.458l9.303.042c.33.854 2.998 7.042 2.998 7.791 0 .771-1.096.917-1.654 1.042l-2.709.583a14.269 14.269 0 00-.082 1.626c2.708-.084 5.416-.313 8.125-.313 2.625 0 5.25.334 7.876.334 0-.188.021-.354.021-.542 0-.395-.062-.791-.124-1.187-.972-.375-2.874-.5-3.556-1.042-.29-.229-.578-.854-.723-1.187-1.034-2.125-1.758-4.354-2.688-6.521-1.571-3.667-2.998-7.396-4.548-11.084L18.523.439c-.062-.146-.145-.292-.227-.438H15.65L9.861 15.085 4.962 27.918c-.868 2.25-2.977 1.834-4.92 2.438L0 32.002z"/></symbol><symbol id="linkedin" viewBox="0 0 32 32"><path d="M7.271 10.398H.396V32h6.875V10.398zm.436-6.672C7.686 1.612 6.228 0 3.874 0 1.54 0 0 1.611 0 3.726c0 2.071 1.479 3.728 3.792 3.728h.041c2.395 0 3.895-1.657 3.874-3.728zM32 19.618c0-6.629-3.376-9.723-7.895-9.723-3.71 0-5.335 2.158-6.231 3.641h.041v-3.138h-6.853s.082 2.027 0 21.602h6.853V19.945c0-.654.064-1.287.231-1.767.498-1.285 1.625-2.615 3.52-2.615 2.48 0 3.479 1.982 3.479 4.882v11.554H32V19.617z"/></symbol><symbol id="map-marker" viewBox="0 0 23 32"><path d="M16.941 10.665c0 2.938-2.537 5.335-5.647 5.335s-5.647-2.396-5.647-5.335c0-2.936 2.537-5.333 5.647-5.333s5.647 2.396 5.647 5.333zm5.647 0C22.588 4.769 17.536 0 11.294 0S0 4.77 0 10.665c0 1.272.154 2.583.728 3.731L8.779 30.52c.44.917 1.455 1.48 2.515 1.48 1.058 0 2.074-.563 2.537-1.48l8.028-16.124c.574-1.148.728-2.458.728-3.731z"/></symbol><symbol id="phone" viewBox="0 0 19 32"><path fill="#555" d="M11.6 28.8a2.005 2.005 0 01-2 1.998c-1.101 0-2-.899-2-1.998 0-1.101.899-2 2-2 1.099 0 2 .899 2 2zm5.2-4c0 .424-.374.8-.8.8H3.2a.823.823 0 01-.8-.8V7.198a.82.82 0 01.8-.798H16c.426 0 .8.374.8.798V24.8zM12 3.6a.393.393 0 01-.4.398h-4a.393.393 0 01-.4-.398c0-.226.174-.402.4-.402h4c.226 0 .4.176.4.402zm7.2-.402C19.2 1.449 17.75 0 16 0H3.2C1.45 0 0 1.45 0 3.198V28.8c0 1.75 1.45 3.198 3.2 3.198H16c1.75 0 3.2-1.448 3.2-3.198V3.198z"/></symbol><symbol id="support" viewBox="0 0 31 32"><path d="M15.67.566C7.013.566 0 7.579 0 16.236s7.013 15.67 15.67 15.67 15.67-7.013 15.67-15.67S24.327.566 15.67.566zm0 2.239c2.273 0 4.425.577 6.313 1.574L18.59 7.772a8.974 8.974 0 00-2.921-.49 9.056 9.056 0 00-2.921.49L9.355 4.379a13.504 13.504 0 016.313-1.574zM3.813 22.549c-.997-1.889-1.574-4.04-1.574-6.313s.577-4.425 1.574-6.313l3.393 3.393a8.973 8.973 0 00-.49 2.92c0 1.014.175 1.994.49 2.921L3.813 22.55zm11.857 7.118c-2.273 0-4.425-.577-6.313-1.574L12.75 24.7c.927.315 1.906.49 2.921.49a8.964 8.964 0 002.92-.49l3.393 3.393a13.504 13.504 0 01-6.313 1.574zm0-6.716c-3.707 0-6.715-3.008-6.715-6.715s3.008-6.715 6.715-6.715 6.715 3.008 6.715 6.715-3.008 6.715-6.715 6.715zm8.464-3.795c.315-.927.49-1.906.49-2.921s-.175-1.994-.49-2.921l3.393-3.393c.997 1.889 1.574 4.04 1.574 6.313s-.577 4.424-1.574 6.313l-3.393-3.393z"/></symbol><symbol id="twitter" viewBox="0 0 39 32"><path d="M36.501 2.457a15.313 15.313 0 01-4.763 1.769 7.575 7.575 0 00-5.47-2.304c-4.142 0-7.497 3.266-7.497 7.291 0 .571.066 1.127.194 1.659-6.231-.304-11.753-3.207-15.451-7.616A7.093 7.093 0 002.499 6.92c0 2.53 1.326 4.761 3.335 6.066a7.643 7.643 0 01-3.394-.914v.091c0 3.531 2.585 6.475 6.011 7.15a7.764 7.764 0 01-1.975.256c-.485 0-.951-.048-1.413-.133.955 2.896 3.723 5.003 7.001 5.065a15.307 15.307 0 01-9.307 3.118 15.79 15.79 0 01-1.79-.101 21.654 21.654 0 0011.493 3.275c13.787 0 21.328-11.109 21.328-20.743l-.025-.944a14.86 14.86 0 003.746-3.769 15.144 15.144 0 01-4.304 1.147c1.547-.903 2.734-2.331 3.296-4.03z"/></symbol></defs></svg>